<svg width="234" height="45" viewBox="0 0 234 45" fill="none" xmlns="http://www.w3.org/2000/svg" class="_h-32px _h-48px-sm _pdv-4px _mgr-12px"><path d="M33.2181 25.2774C35.0516 30.0846 35.9193 39.7024 36.1477 42.6405C36.1868 43.1488 36.5914 43.5455 37.097 43.5816C52.0157 44.6211 55.4476 37.6595 56.1621 35.4264C56.2861 35.0329 56.1686 34.6066 55.8554 34.3377C49.9245 29.2616 42.3755 24.9823 39.9222 23.6477C39.5242 23.4313 39.0283 23.4968 38.7184 23.8247C38.1442 24.4314 36.7871 25.2643 33.6748 25.1725H33.1627L33.2181 25.2774Z" fill="#FAFAFA"></path><path d="M37.1198 16.1155C36.5783 15.4171 34.6437 13.3676 29.7437 11.8821C29.6132 11.8428 29.5055 11.7444 29.4566 11.6132L25.4537 0.913388C25.3298 0.585474 25.6168 0.251001 25.9561 0.323142C28.8792 0.94618 39.4752 3.74329 48.6652 13.0823C48.9132 13.3348 48.7761 13.7676 48.4271 13.83C46.4958 14.1677 41.5435 15.0891 37.5929 16.2696C37.4167 16.3188 37.234 16.2598 37.1198 16.1155Z" fill="#FAFAFA"></path><path d="M22.0415 14.0628C21.8685 16.6206 22.6776 18.552 23.2681 19.598C23.5323 20.0669 23.3105 20.6572 22.8048 20.8343C19.7382 21.9 10.7309 25.0873 7.01515 27.0548C6.63019 27.2581 6.16042 27.1466 5.91248 26.7892C4.0138 24.0642 -2.91213 13.1184 2.72518 5.79281C2.95354 5.49768 3.34176 5.37963 3.69083 5.50424C6.05602 6.34698 15.3145 9.75402 21.5782 13.5283C21.6402 13.5644 21.6956 13.6103 21.7478 13.6595L21.9697 13.8825L22.0415 14.0628Z" fill="#FAFAFA"></path><path d="M35.7127 21.3978C36.7504 19.8864 35.4483 17.1744 32.8045 15.3403C30.1606 13.5062 27.1761 13.2446 26.1383 14.7559C25.1006 16.2672 26.4027 18.9793 29.0466 20.8134C31.6905 22.6475 34.675 22.9091 35.7127 21.3978Z" fill="#FAFAFA"></path><path d="M75.563 18.8774L72.9221 21.8283V29H66.485V1.80733H72.9221V13.7975L75.1595 10.3424L80.9181 1.80733H88.8775L79.8544 13.8348L88.8775 29H81.2482L75.563 18.8774Z" fill="#FAFAFA"></path><path d="M96.7451 29H90.5463V8.79225H96.7451V29ZM90.1796 3.58158C90.1796 2.68512 90.4974 1.95052 91.1332 1.37778C91.769 0.80504 92.5942 0.518671 93.609 0.518671C94.6238 0.518671 95.4491 0.80504 96.0849 1.37778C96.7206 1.95052 97.0385 2.68512 97.0385 3.58158C97.0385 4.47804 96.7206 5.21264 96.0849 5.78537C95.4491 6.35811 94.6238 6.64448 93.609 6.64448C92.5942 6.64448 91.769 6.35811 91.1332 5.78537C90.4974 5.21264 90.1796 4.47804 90.1796 3.58158Z" fill="#FAFAFA"></path><path d="M107.089 29H100.89V0.313232H107.089V29Z" fill="#FAFAFA"></path><path d="M117.432 29H111.233V0.313232H117.432V29Z" fill="#FAFAFA"></path><path d="M135.313 21.7722C135.313 20.8135 134.977 20.0665 134.304 19.5311C133.644 18.9957 132.476 18.4416 130.801 17.8689C129.126 17.2962 127.757 16.7421 126.693 16.2067C123.233 14.4761 121.503 12.0979 121.503 9.07239C121.503 7.56584 121.931 6.23983 122.787 5.09435C123.655 3.93642 124.878 3.03996 126.455 2.40497C128.032 1.75753 129.805 1.43381 131.773 1.43381C133.693 1.43381 135.411 1.78243 136.927 2.47968C138.455 3.17692 139.641 4.17299 140.485 5.46788C141.328 6.75031 141.75 8.21951 141.75 9.87547H135.331C135.331 8.76735 134.995 7.90824 134.323 7.29815C133.662 6.68806 132.764 6.38301 131.627 6.38301C130.477 6.38301 129.567 6.64448 128.894 7.16742C128.234 7.6779 127.904 8.33157 127.904 9.12842C127.904 9.82567 128.271 10.4607 129.004 11.0334C129.738 11.5937 131.028 12.1789 132.874 12.789C134.72 13.3866 136.236 14.034 137.422 14.7313C140.307 16.4246 141.75 18.7591 141.75 21.7349C141.75 24.113 140.87 25.9806 139.109 27.3378C137.349 28.6949 134.934 29.3735 131.865 29.3735C129.701 29.3735 127.739 28.9813 125.978 28.1969C124.23 27.4 122.909 26.3168 122.017 24.9472C121.137 23.5652 120.696 21.9777 120.696 20.1848H127.152C127.152 21.6415 127.519 22.7185 128.252 23.4158C128.998 24.1005 130.202 24.4429 131.865 24.4429C132.929 24.4429 133.766 24.2126 134.378 23.7519C135.001 23.2788 135.313 22.6189 135.313 21.7722Z" fill="#FAFAFA"></path><path d="M161.905 20.7077L163.904 8.79225H169.828L165.151 29H159.924L156.642 17.0098L153.341 29H148.114L143.437 8.79225H149.361L151.323 20.9878L154.478 8.79225H158.787L161.905 20.7077Z" fill="#FAFAFA"></path><path d="M178.576 29H172.377V8.79225H178.576V29ZM172.01 3.58158C172.01 2.68512 172.328 1.95052 172.964 1.37778C173.6 0.80504 174.425 0.518671 175.44 0.518671C176.454 0.518671 177.28 0.80504 177.915 1.37778C178.551 1.95052 178.869 2.68512 178.869 3.58158C178.869 4.47804 178.551 5.21264 177.915 5.78537C177.28 6.35811 176.454 6.64448 175.44 6.64448C174.425 6.64448 173.6 6.35811 172.964 5.78537C172.328 5.21264 172.01 4.47804 172.01 3.58158Z" fill="#FAFAFA"></path><path d="M189.598 3.76834V8.79225H192.862V13.1625H189.598V22.4072C189.598 23.1667 189.732 23.6959 190.001 23.9947C190.27 24.2935 190.802 24.4429 191.597 24.4429C192.208 24.4429 192.722 24.4056 193.137 24.3309V28.8319C192.025 29.1929 190.863 29.3735 189.653 29.3735C187.525 29.3735 185.954 28.863 184.939 27.842C183.925 26.8211 183.417 25.2709 183.417 23.1916V13.1625H180.886V8.79225H183.417V3.76834H189.598Z" fill="#FAFAFA"></path><path d="M203.701 24.5177C204.569 24.5177 205.241 24.2811 205.718 23.808C206.195 23.3224 206.427 22.65 206.415 21.7909H212.21C212.21 24.0072 211.428 25.825 209.863 27.2444C208.31 28.6638 206.305 29.3735 203.847 29.3735C200.962 29.3735 198.688 28.4521 197.025 26.6094C195.362 24.7667 194.531 22.2142 194.531 18.9521V18.6907C194.531 16.6487 194.898 14.8496 195.631 13.2932C196.377 11.7244 197.447 10.5229 198.841 9.68871C200.235 8.84205 201.885 8.41872 203.792 8.41872C206.372 8.41872 208.42 9.1471 209.936 10.6038C211.452 12.0606 212.21 14.034 212.21 16.5242H206.415C206.415 15.4783 206.164 14.6753 205.663 14.115C205.162 13.5547 204.489 13.2745 203.646 13.2745C202.044 13.2745 201.109 14.3142 200.84 16.3935C200.754 17.0534 200.711 17.9623 200.711 19.1202C200.711 21.1497 200.95 22.5566 201.427 23.341C201.903 24.1255 202.661 24.5177 203.701 24.5177Z" fill="#FAFAFA"></path><path d="M220.866 10.9587C222.187 9.26538 223.874 8.41872 225.928 8.41872C228.117 8.41872 229.767 9.07862 230.88 10.3984C231.992 11.7182 232.561 13.6667 232.585 16.2441V29H226.387V16.3935C226.387 15.3227 226.173 14.5383 225.745 14.0403C225.317 13.5298 224.589 13.2745 223.562 13.2745C222.291 13.2745 221.392 13.6854 220.866 14.5072V29H214.686V0.313232H220.866V10.9587Z" fill="#FAFAFA"></path></svg>