<svg class="generator__canvas" viewBox="0 0 200 200" xmlns="http://www.w3.org/2000/svg" version="1.1" xmlns:xlink="http://www.w3.org/1999/xlink" xmlns:svgjs="http://svgjs.dev/svgjs"><circle r="20" cx="20" cy="20" fill="#41a7b4" transform="matrix(0.5717496635056128,0,0,0.5717496635056128,8.565006729887743,8.565006729887743)"></circle><circle r="20" cx="20" cy="60" fill="#41a7b4" transform="matrix(0.5335347606001084,0,0,0.5335347606001084,9.329304787997831,27.987914363993497)"></circle><circle r="20" cx="20" cy="100" fill="#41a7b4" transform="matrix(0.48815877788305806,0,0,0.48815877788305806,10.23682444233884,51.184122211694195)"></circle><circle r="20" cx="20" cy="140" fill="#41a7b4" transform="matrix(0.43885968766019534,0,0,0.43885968766019534,11.222806246796093,78.55964372757265)"></circle><circle r="20" cx="20" cy="180" fill="#41a7b4" transform="matrix(0.3894546828270072,0,0,0.3894546828270072,12.210906343459857,109.89815709113871)"></circle><circle r="20" cx="60" cy="20" fill="#41a7b4" transform="matrix(0.5793964814407043,0,0,0.5793964814407043,25.236211113557744,8.412070371185914)"></circle><circle r="20" cx="60" cy="60" fill="#41a7b4" transform="matrix(0.5390685934200027,0,0,0.5390685934200027,27.65588439479984,27.65588439479984)"></circle><circle r="20" cx="60" cy="100" fill="#41a7b4" transform="matrix(0.4910531348462848,0,0,0.4910531348462848,30.536811909222912,50.89468651537152)"></circle><circle r="20" cx="60" cy="140" fill="#41a7b4" transform="matrix(0.43893709891322463,0,0,0.43893709891322463,33.663774065206525,78.54880615214856)"></circle><circle r="20" cx="60" cy="180" fill="#41a7b4" transform="matrix(0.38671064334385424,0,0,0.38671064334385424,36.79736139936875,110.39208419810623)"></circle><circle r="20" cx="100" cy="20" fill="#41a7b4" transform="matrix(0.5837013590838035,0,0,0.5837013590838035,41.62986409161965,8.32597281832393)"></circle><circle r="20" cx="100" cy="60" fill="#41a7b4" transform="matrix(0.5421046597789162,0,0,0.5421046597789162,45.78953402210838,27.473720413265028)"></circle><circle r="20" cx="100" cy="100" fill="#41a7b4" transform="matrix(0.4926379256606812,0,0,0.4926379256606812,50.73620743393188,50.73620743393188)"></circle><circle r="20" cx="100" cy="140" fill="#41a7b4" transform="matrix(0.43897948048903385,0,0,0.43897948048903385,56.10205195109661,78.54287273153525)"></circle><circle r="20" cx="100" cy="180" fill="#41a7b4" transform="matrix(0.38520817567123855,0,0,0.38520817567123855,61.479182432876144,110.66252837917706)"></circle><circle r="20" cx="140" cy="20" fill="#41a7b4" transform="matrix(0.5842019222778273,0,0,0.5842019222778273,58.211730881104174,8.315961554443454)"></circle><circle r="20" cx="140" cy="60" fill="#41a7b4" transform="matrix(0.5424577295853076,0,0,0.5424577295853076,64.05591785805694,27.45253622488155)"></circle><circle r="20" cx="140" cy="100" fill="#41a7b4" transform="matrix(0.492822201707957,0,0,0.492822201707957,71.00489176088603,50.717779829204304)"></circle><circle r="20" cx="140" cy="140" fill="#41a7b4" transform="matrix(0.438984408324514,0,0,0.438984408324514,78.54218283456804,78.54218283456804)"></circle><circle r="20" cx="140" cy="180" fill="#41a7b4" transform="matrix(0.3850334727234355,0,0,0.3850334727234355,86.09531381871903,110.6939749097816)"></circle><circle r="20" cx="180" cy="20" fill="#41a7b4" transform="matrix(0.5808492458657206,0,0,0.5808492458657206,75.44713574417028,8.383015082685588)"></circle><circle r="20" cx="180" cy="60" fill="#41a7b4" transform="matrix(0.540107312255458,0,0,0.540107312255458,82.78068379401755,27.593561264672516)"></circle><circle r="20" cx="180" cy="100" fill="#41a7b4" transform="matrix(0.49159537272416226,0,0,0.49159537272416226,91.5128329096508,50.84046272758378)"></circle><circle r="20" cx="180" cy="140" fill="#41a7b4" transform="matrix(0.43895160016925805,0,0,0.43895160016925805,100.98871196953355,78.54677597630388)"></circle><circle r="20" cx="180" cy="180" fill="#41a7b4" transform="matrix(0.38619657111732625,0,0,0.38619657111732625,110.48461719888128,110.48461719888128)"></circle></svg>